<svg width="18" height="18" viewBox="0 0 18 18" fill="none" xmlns="http://www.w3.org/2000/svg">
<path d="M8.99984 0.666748C7.35166 0.666748 5.7405 1.15549 4.37009 2.07117C2.99968 2.98685 1.93158 4.28834 1.30084 5.81105C0.670115 7.33377 0.505087 9.00933 0.82663 10.6258C1.14817 12.2423 1.94185 13.7272 3.10728 14.8926C4.27272 16.0581 5.75758 16.8517 7.37409 17.1733C8.9906 17.4948 10.6662 17.3298 12.1889 16.6991C13.7116 16.0683 15.0131 15.0002 15.9288 13.6298C16.8444 12.2594 17.3332 10.6483 17.3332 9.00008C17.3332 7.90573 17.1176 6.8221 16.6988 5.81105C16.28 4.80001 15.6662 3.88135 14.8924 3.10752C14.1186 2.3337 13.1999 1.71987 12.1889 1.30109C11.1778 0.882296 10.0942 0.666748 8.99984 0.666748ZM8.99984 15.6667C7.6813 15.6667 6.39237 15.2758 5.29604 14.5432C4.19971 13.8107 3.34523 12.7695 2.84064 11.5513C2.33606 10.3331 2.20404 8.99269 2.46127 7.69948C2.71851 6.40627 3.35345 5.21839 4.2858 4.28604C5.21815 3.35369 6.40603 2.71875 7.69924 2.46151C8.99244 2.20428 10.3329 2.3363 11.5511 2.84088C12.7692 3.34547 13.8104 4.19995 14.543 5.29628C15.2755 6.39261 15.6665 7.68154 15.6665 9.00008C15.6665 10.7682 14.9641 12.4639 13.7139 13.7141C12.4636 14.9644 10.768 15.6667 8.99984 15.6667Z" fill="#11193C"/>
<path d="M9.00008 13.1667C9.46032 13.1667 9.83341 12.7936 9.83341 12.3333C9.83341 11.8731 9.46032 11.5 9.00008 11.5C8.53984 11.5 8.16675 11.8731 8.16675 12.3333C8.16675 12.7936 8.53984 13.1667 9.00008 13.1667Z" fill="#11193C"/>
<path d="M9.00008 4.8335C8.77907 4.8335 8.56711 4.92129 8.41083 5.07757C8.25455 5.23385 8.16675 5.44582 8.16675 5.66683V9.8335C8.16675 10.0545 8.25455 10.2665 8.41083 10.4228C8.56711 10.579 8.77907 10.6668 9.00008 10.6668C9.2211 10.6668 9.43306 10.579 9.58934 10.4228C9.74562 10.2665 9.83341 10.0545 9.83341 9.8335V5.66683C9.83341 5.44582 9.74562 5.23385 9.58934 5.07757C9.43306 4.92129 9.2211 4.8335 9.00008 4.8335Z" fill="#11193C"/>
</svg>
