<svg width="14" height="18" viewBox="0 0 14 18" fill="none" xmlns="http://www.w3.org/2000/svg">
<path d="M7.14 3.14003L4.35 0.360029C4.15 0.170029 3.84 0.170029 3.64 0.360029L0.850003 3.14003C0.530003 3.45003 0.760003 3.99003 1.2 3.99003L3 3.99003L3 10C3 10.55 3.45 11 4 11C4.55 11 5 10.55 5 10L5 3.99003L6.79 3.99003C7.24 3.99003 7.46 3.45003 7.14 3.14003ZM10.35 17.65L13.14 14.87C13.46 14.56 13.23 14.02 12.79 14.02L11 14.02L11 8.00003C11 7.45003 10.55 7.00003 10 7.00003C9.45 7.00003 9 7.45003 9 8.00003L9 14.01L7.21 14.01C6.76 14.01 6.54 14.55 6.86 14.86L9.65 17.64C9.84 17.84 10.16 17.84 10.35 17.65Z" fill="white"/>
</svg>
