<svg width="82" height="82" viewBox="0 0 82 82" fill="none" xmlns="http://www.w3.org/2000/svg">
<path fill-rule="evenodd" clip-rule="evenodd" d="M18.9528 70.4019C10.058 63.7171 4.28682 53.0326 4.28682 41C4.28682 20.7451 20.6255 4.31168 40.7636 4.31168C57.3902 4.31168 75.5455 14.3054 79.932 29.6136C75.0249 12.5117 59.3508 0 40.7636 0C18.255 0 0 18.3609 0 41C0 63.6391 18.255 82 40.7636 82C63.2721 82 81.5271 63.6391 81.5271 41V38.8386H79.2895C79.2231 38.8386 79.1234 38.8386 78.9905 38.8386C78.7246 38.8386 78.348 38.8274 77.8606 38.8052C76.8969 38.7717 75.5677 38.7049 74.0723 38.5712C71.015 38.3038 67.5257 37.7802 65.1552 36.822C61.3336 35.2845 59.1736 33.2568 56.7145 30.8726L56.5705 30.7389C54.1003 28.3546 51.3311 25.6696 46.5125 23.3967C41.7716 21.1573 36.5321 21.5139 32.6884 22.316C30.7388 22.7171 29.0551 23.2519 27.8699 23.6864C27.2717 23.8981 26.7954 24.0986 26.4631 24.2323C24.5246 25.0568 22.6415 26.0261 20.7473 26.9285C20.7473 26.9285 24.4803 27.9535 26.3191 28.5329C26.3855 28.5552 26.4852 28.5886 26.6292 28.6332C26.9062 28.7223 27.3049 28.8671 27.7812 29.0677C28.756 29.4688 30.0299 30.0592 31.2927 30.8837C33.2865 32.1649 34.937 33.7916 35.6127 35.7747C31.3924 36.3318 27.4268 38.2035 24.4581 39.9527C22.6636 41.0111 21.1682 42.0807 20.1159 42.8717C19.5953 43.2728 19.1744 43.6071 18.8864 43.841C18.6427 44.0416 14.8322 47.4174 14.8322 47.4174C14.8322 47.4174 19.7504 47.941 22.1763 48.4313C23.7935 48.7544 25.9646 49.2891 28.2465 50.0802C30.5284 50.8823 32.8324 51.9296 34.7487 53.2777C36.665 54.6258 38.0718 56.1745 38.7586 57.9571C40.7746 63.1489 38.7918 68.1959 34.8152 71.037C30.8828 73.8446 24.9123 74.513 18.9418 70.3908L18.9528 70.4019ZM32.8656 76.8193C34.4718 76.2957 35.9672 75.5269 37.3186 74.5688C42.7242 70.7027 45.571 63.6169 42.7685 56.3973C41.6608 53.5563 39.5562 51.3948 37.2189 49.7459C34.8706 48.097 32.1788 46.8938 29.6754 46.0136C28.036 45.4342 26.4409 44.9886 25.0563 44.6544C25.5548 44.3313 26.0754 43.997 26.6403 43.6628C29.9413 41.713 34.1062 39.9193 38.094 39.9193C44.1088 39.9193 48.584 41.7799 52.8597 43.763C53.2474 43.9413 53.6351 44.1307 54.0339 44.309C57.8554 46.1139 61.8653 48.0079 66.5288 48.0079C71.1922 48.0079 74.5707 46.7266 76.9966 45.3897C74.8366 63.5723 59.4505 77.6772 40.7857 77.6772C38.0718 77.6772 35.4244 77.3764 32.8878 76.8193H32.8656ZM72.3442 42.7492C70.7381 43.2951 68.7885 43.6962 66.5177 43.6962C62.8623 43.6962 59.7164 42.2255 55.7287 40.3538C55.3742 40.1867 55.0197 40.0196 54.6542 39.8524C50.6554 37.9919 46.0362 36.0198 40.0214 35.6633C39.2128 31.6636 36.1998 28.9228 33.6078 27.2516C33.3198 27.0622 33.0318 26.884 32.7438 26.7168C32.9985 26.6611 33.2644 26.5943 33.5413 26.5386C37.0195 25.8144 41.1623 25.6361 44.6738 27.3073C48.8387 29.2793 51.1981 31.5522 53.6462 33.9141L53.7348 33.9921C56.2493 36.4209 58.9188 38.9723 63.5601 40.844C66.1411 41.8802 69.4863 42.4372 72.3442 42.7492Z" fill="url(#paint0_linear_4316_1988)"/>
<defs>
<linearGradient id="paint0_linear_4316_1988" x1="-0.731086" y1="41.7576" x2="82.2585" y2="40.2488" gradientUnits="userSpaceOnUse">
<stop stop-color="#29CCB9"/>
<stop offset="0.49" stop-color="#0091FF"/>
<stop offset="1" stop-color="#FF66B7"/>
</linearGradient>
</defs>
</svg>
