<svg width="24" height="24" viewBox="0 0 24 24" fill="none" xmlns="http://www.w3.org/2000/svg">
<path fill-rule="evenodd" clip-rule="evenodd" d="M7.71961 17.7376C5.97288 16.4324 4.84211 14.3482 4.84211 12C4.84211 8.04681 8.04681 4.84211 12 4.84211C15.2627 4.84211 18.8256 6.79188 19.6873 9.778C18.7244 6.44112 15.6478 4 12 4C7.58173 4 4 7.58173 4 12C4 16.4183 7.58173 20 12 20C16.4183 20 20 16.4183 20 12V11.579L19.5605 11.5789C19.5474 11.5788 19.5277 11.5786 19.5019 11.5782C19.4504 11.5774 19.3749 11.5758 19.2807 11.5726C19.092 11.5662 18.8299 11.5534 18.5362 11.5279C17.9359 11.4756 17.2514 11.3738 16.7851 11.1875C16.035 10.888 15.6116 10.4909 15.1277 10.0262L15.0997 9.99932C14.615 9.53366 14.0704 9.01051 13.1266 8.56637C12.1968 8.12883 11.1687 8.19902 10.4132 8.35449C10.0295 8.43341 9.70091 8.53751 9.46776 8.62195C9.35088 8.66427 9.2572 8.70195 9.19169 8.72954C8.81149 8.88961 8.44247 9.079 8.06935 9.25471C8.06935 9.25471 8.80142 9.45551 9.16349 9.56761C9.17659 9.57166 9.19703 9.57815 9.22379 9.58715C9.27735 9.6052 9.35574 9.63315 9.45059 9.67154C9.64157 9.74886 9.89276 9.86583 10.1407 10.0252C10.5313 10.2763 10.8551 10.5922 10.9879 10.98C10.1588 11.089 9.3812 11.4529 8.79969 11.795C8.44708 12.0024 8.15384 12.2094 7.94832 12.3648C7.84537 12.4427 7.76391 12.508 7.70747 12.5545C7.6601 12.5935 6.91154 13.2534 6.91154 13.2534C6.91154 13.2534 7.8773 13.3561 8.35386 13.4521C8.67091 13.516 9.09835 13.6188 9.5442 13.7744C9.9921 13.9306 10.4446 14.1354 10.8201 14.3975C11.1963 14.6601 11.4719 14.9637 11.6079 15.3113C12.004 16.3235 11.6153 17.3095 10.835 17.8641C10.064 18.4122 8.89171 18.5425 7.71961 17.7376ZM10.4492 18.9894C10.7644 18.887 11.0587 18.7383 11.3229 18.5505C12.3847 17.7958 12.9434 16.4133 12.3921 15.0045C12.1755 14.451 11.7616 14.0277 11.3021 13.707C10.8417 13.3856 10.3119 13.1503 9.82164 12.9793C9.49925 12.8668 9.18786 12.78 8.91513 12.7141C9.01188 12.6509 9.1161 12.5859 9.22664 12.5208C9.87473 12.1396 10.691 11.7895 11.4737 11.7895C12.6535 11.7895 13.5321 12.1515 14.3711 12.54C14.4473 12.5753 14.5239 12.6112 14.6008 12.6473C15.3505 12.999 16.1379 13.3684 17.0526 13.3684C17.9398 13.3684 18.6308 13.1176 19.107 12.8582C18.683 16.4068 15.6628 19.1579 12 19.1579C11.4675 19.1579 10.9485 19.0997 10.4492 18.9894ZM18.1971 12.341C17.8818 12.4486 17.4996 12.5263 17.0526 12.5263C16.335 12.5263 15.7184 12.2388 14.9357 11.8739C14.8668 11.8418 14.7966 11.809 14.7249 11.7758C13.9412 11.4129 13.0344 11.0282 11.8541 10.9585C11.6957 10.177 11.1034 9.64302 10.5961 9.31688C10.5396 9.28053 10.4831 9.24612 10.4273 9.21361C10.4779 9.20171 10.5299 9.19022 10.5829 9.17929C11.2647 9.039 12.0787 9.00393 12.768 9.32832C13.5862 9.71336 14.0478 10.1566 14.528 10.6178L14.5444 10.6336C15.0385 11.108 15.5611 11.6055 16.4728 11.9696C16.9793 12.1719 17.6349 12.2807 18.1971 12.341Z" fill="white"/>
</svg>
